<svg xmlns="http://www.w3.org/2000/svg" xmlns:xlink="http://www.w3.org/1999/xlink" contentStyleType="text/css" height="617px" preserveAspectRatio="none" style="width:893px;height:617px;background:#FFFFFF;" version="1.1" viewBox="0 0 893 617" width="893px" zoomAndPan="magnify"><defs/><g><!--cluster Frontend--><g id="cluster_Frontend"><path d="M464.5,6 L537.5,6 A3.75,3.75 0 0 1 540,8.5 L547,28.2969 L649.5,28.2969 A2.5,2.5 0 0 1 652,30.7969 L652,100.79 A2.5,2.5 0 0 1 649.5,103.29 L464.5,103.29 A2.5,2.5 0 0 1 462,100.79 L462,8.5 A2.5,2.5 0 0 1 464.5,6 " fill="none" style="stroke:#000000;stroke-width:1.5;"/><line style="stroke:#000000;stroke-width:1.5;" x1="462" x2="547" y1="28.2969" y2="28.2969"/><text fill="#000000" font-family="sans-serif" font-size="14" font-weight="bold" lengthAdjust="spacing" textLength="72" x="466" y="20.9951">Frontend</text></g><!--cluster Backend--><g id="cluster_Backend"><path d="M8.5,152.29 L76.5,152.29 A3.75,3.75 0 0 1 79,154.79 L86,174.5869 L872.5,174.5869 A2.5,2.5 0 0 1 875,177.0869 L875,608.13 A2.5,2.5 0 0 1 872.5,610.63 L8.5,610.63 A2.5,2.5 0 0 1 6,608.13 L6,154.79 A2.5,2.5 0 0 1 8.5,152.29 " fill="none" style="stroke:#000000;stroke-width:1.5;"/><line style="stroke:#000000;stroke-width:1.5;" x1="6" x2="86" y1="174.5869" y2="174.5869"/><text fill="#000000" font-family="sans-serif" font-size="14" font-weight="bold" lengthAdjust="spacing" textLength="67" x="10" y="167.2851">Backend</text></g><!--cluster Auth Provider (Jakarta EE)--><g id="cluster_Auth Provider (Jakarta EE)"><path d="M32.5,195.29 L235.5,195.29 A3.75,3.75 0 0 1 238,197.79 L245,217.5869 L245.5,217.5869 A2.5,2.5 0 0 1 248,220.0869 L248,442.54 A2.5,2.5 0 0 1 245.5,445.04 L32.5,445.04 A2.5,2.5 0 0 1 30,442.54 L30,197.79 A2.5,2.5 0 0 1 32.5,195.29 " fill="none" style="stroke:#000000;stroke-width:1.5;"/><line style="stroke:#000000;stroke-width:1.5;" x1="30" x2="245" y1="217.5869" y2="217.5869"/><text fill="#000000" font-family="sans-serif" font-size="14" font-weight="bold" lengthAdjust="spacing" textLength="202" x="34" y="210.2851">Auth Provider (Jakarta EE)</text></g><!--cluster Content API (Spring Boot)--><g id="cluster_Content API (Spring Boot)"><path d="M274.5,339.59 L477.5,339.59 A3.75,3.75 0 0 1 480,342.09 L487,361.8869 L848.5,361.8869 A2.5,2.5 0 0 1 851,364.3869 L851,584.13 A2.5,2.5 0 0 1 848.5,586.63 L274.5,586.63 A2.5,2.5 0 0 1 272,584.13 L272,342.09 A2.5,2.5 0 0 1 274.5,339.59 " fill="none" style="stroke:#000000;stroke-width:1.5;"/><line style="stroke:#000000;stroke-width:1.5;" x1="272" x2="487" y1="361.8869" y2="361.8869"/><text fill="#000000" font-family="sans-serif" font-size="14" font-weight="bold" lengthAdjust="spacing" textLength="202" x="276" y="354.5851">Content API (Spring Boot)</text></g><!--entity React Application--><g id="elem_React Application"><rect fill="#F1F1F1" height="46.2969" rx="2.5" ry="2.5" style="stroke:#181818;stroke-width:0.5;" width="159" x="477.5" y="41"/><rect fill="#F1F1F1" height="10" style="stroke:#181818;stroke-width:0.5;" width="15" x="616.5" y="46"/><rect fill="#F1F1F1" height="2" style="stroke:#181818;stroke-width:0.5;" width="4" x="614.5" y="48"/><rect fill="#F1F1F1" height="2" style="stroke:#181818;stroke-width:0.5;" width="4" x="614.5" y="52"/><text fill="#000000" font-family="sans-serif" font-size="14" lengthAdjust="spacing" textLength="119" x="492.5" y="73.9951">React Application</text></g><!--entity Auth Service--><g id="elem_Auth Service"><rect fill="#F1F1F1" height="46.2969" rx="2.5" ry="2.5" style="stroke:#181818;stroke-width:0.5;" width="126" x="106" y="230.29"/><rect fill="#F1F1F1" height="10" style="stroke:#181818;stroke-width:0.5;" width="15" x="212" y="235.29"/><rect fill="#F1F1F1" height="2" style="stroke:#181818;stroke-width:0.5;" width="4" x="210" y="237.29"/><rect fill="#F1F1F1" height="2" style="stroke:#181818;stroke-width:0.5;" width="4" x="210" y="241.29"/><text fill="#000000" font-family="sans-serif" font-size="14" lengthAdjust="spacing" textLength="86" x="121" y="263.2851">Auth Service</text></g><!--entity Auth Database--><g id="elem_Auth Database"><rect fill="#F1F1F1" height="62.5938" rx="2.5" ry="2.5" style="stroke:#181818;stroke-width:0.5;" width="142" x="84" y="366.44"/><rect fill="#F1F1F1" height="10" style="stroke:#181818;stroke-width:0.5;" width="15" x="206" y="371.44"/><rect fill="#F1F1F1" height="2" style="stroke:#181818;stroke-width:0.5;" width="4" x="204" y="373.44"/><rect fill="#F1F1F1" height="2" style="stroke:#181818;stroke-width:0.5;" width="4" x="204" y="377.44"/><text fill="#000000" font-family="sans-serif" font-size="14" font-style="italic" lengthAdjust="spacing" textLength="64" x="118" y="399.4351">&#171;MySQL&#187;</text><text fill="#000000" font-family="sans-serif" font-size="14" lengthAdjust="spacing" textLength="102" x="99" y="415.732">Auth Database</text></g><!--entity Post Endpoint--><g id="elem_Post Endpoint"><rect fill="#F1F1F1" height="46.2969" rx="2.5" ry="2.5" style="stroke:#181818;stroke-width:0.5;" width="137" x="488.5" y="374.59"/><rect fill="#F1F1F1" height="10" style="stroke:#181818;stroke-width:0.5;" width="15" x="605.5" y="379.59"/><rect fill="#F1F1F1" height="2" style="stroke:#181818;stroke-width:0.5;" width="4" x="603.5" y="381.59"/><rect fill="#F1F1F1" height="2" style="stroke:#181818;stroke-width:0.5;" width="4" x="603.5" y="385.59"/><text fill="#000000" font-family="sans-serif" font-size="14" lengthAdjust="spacing" textLength="97" x="503.5" y="407.5851">Post Endpoint</text></g><!--entity AppUser Endpoint--><g id="elem_AppUser Endpoint"><rect fill="#F1F1F1" height="46.2969" rx="2.5" ry="2.5" style="stroke:#181818;stroke-width:0.5;" width="165" x="288.5" y="374.59"/><rect fill="#F1F1F1" height="10" style="stroke:#181818;stroke-width:0.5;" width="15" x="433.5" y="379.59"/><rect fill="#F1F1F1" height="2" style="stroke:#181818;stroke-width:0.5;" width="4" x="431.5" y="381.59"/><rect fill="#F1F1F1" height="2" style="stroke:#181818;stroke-width:0.5;" width="4" x="431.5" y="385.59"/><text fill="#000000" font-family="sans-serif" font-size="14" lengthAdjust="spacing" textLength="125" x="303.5" y="407.5851">AppUser Endpoint</text></g><!--entity Comment Endpoint--><g id="elem_Comment Endpoint"><rect fill="#F1F1F1" height="46.2969" rx="2.5" ry="2.5" style="stroke:#181818;stroke-width:0.5;" width="174" x="661" y="374.59"/><rect fill="#F1F1F1" height="10" style="stroke:#181818;stroke-width:0.5;" width="15" x="815" y="379.59"/><rect fill="#F1F1F1" height="2" style="stroke:#181818;stroke-width:0.5;" width="4" x="813" y="381.59"/><rect fill="#F1F1F1" height="2" style="stroke:#181818;stroke-width:0.5;" width="4" x="813" y="385.59"/><text fill="#000000" font-family="sans-serif" font-size="14" lengthAdjust="spacing" textLength="134" x="676" y="407.5851">Comment Endpoint</text></g><!--entity Content Database--><g id="elem_Content Database"><rect fill="#F1F1F1" height="62.5938" rx="2.5" ry="2.5" style="stroke:#181818;stroke-width:0.5;" width="166" x="474" y="508.04"/><rect fill="#F1F1F1" height="10" style="stroke:#181818;stroke-width:0.5;" width="15" x="620" y="513.04"/><rect fill="#F1F1F1" height="2" style="stroke:#181818;stroke-width:0.5;" width="4" x="618" y="515.04"/><rect fill="#F1F1F1" height="2" style="stroke:#181818;stroke-width:0.5;" width="4" x="618" y="519.04"/><text fill="#000000" font-family="sans-serif" font-size="14" font-style="italic" lengthAdjust="spacing" textLength="64" x="520" y="541.0351">&#171;MySQL&#187;</text><text fill="#000000" font-family="sans-serif" font-size="14" lengthAdjust="spacing" textLength="126" x="489" y="557.332">Content Database</text></g><!--link React Application to Auth Service--><g id="link_React Application_Auth Service"><path d="M506.9,87.76 C485.87,97.35 461.18,108.74 439,119.29 C359.24,157.25 272.4829,200.4295 219.0829,227.2195 " fill="none" id="React Application-to-Auth Service" style="stroke:#181818;stroke-width:1.0;"/><polygon fill="#181818" points="213.72,229.91,223.5581,229.4495,218.1891,227.6679,219.9707,222.2989,213.72,229.91" style="stroke:#181818;stroke-width:1.0;"/><text fill="#000000" font-family="sans-serif" font-size="13" lengthAdjust="spacing" textLength="90" x="440" y="132.3569">Login/Register</text></g><!--link Auth Service to Auth Database--><g id="link_Auth Service_Auth Database"><path d="M166.78,276.99 C164.41,301.05 161.2364,333.3387 158.6064,360.1187 " fill="none" id="Auth Service-to-Auth Database" style="stroke:#181818;stroke-width:1.0;"/><polygon fill="#181818" points="158.02,366.09,162.8805,357.524,158.5087,361.1139,154.9188,356.7421,158.02,366.09" style="stroke:#181818;stroke-width:1.0;"/><text fill="#000000" font-family="sans-serif" font-size="13" lengthAdjust="spacing" textLength="111" x="164" y="319.6569">CRUD Operations</text></g><!--link Auth Service to AppUser Endpoint--><g id="link_Auth Service_AppUser Endpoint"><path d="M229.25,277.04 C247.3,285.09 266.63,295.07 283,306.59 C310.54,325.98 332.9397,350.0583 349.4897,369.8383 " fill="none" id="Auth Service-to-AppUser Endpoint" style="stroke:#181818;stroke-width:1.0;"/><polygon fill="#181818" points="353.34,374.44,350.6324,364.9706,350.1315,370.6053,344.4968,370.1043,353.34,374.44" style="stroke:#181818;stroke-width:1.0;"/><text fill="#000000" font-family="sans-serif" font-size="13" lengthAdjust="spacing" textLength="123" x="302" y="319.6569">Create User (HTTP)</text></g><!--link React Application to Post Endpoint--><g id="link_React Application_Post Endpoint"><path d="M557,87.68 C557,148.17 557,307.65 557,368.18 " fill="none" id="React Application-to-Post Endpoint" style="stroke:#181818;stroke-width:1.0;"/><polygon fill="#181818" points="557,374.18,561,365.18,557,369.18,553,365.18,557,374.18" style="stroke:#181818;stroke-width:1.0;"/><text fill="#000000" font-family="sans-serif" font-size="13" lengthAdjust="spacing" textLength="114" x="558" y="258.0069">Fetch/Create Post</text></g><!--link React Application to Comment Endpoint--><g id="link_React Application_Comment Endpoint"><path d="M609.81,87.64 C634.78,100.77 662.99,119.65 681,144.29 C733.7,216.42 744.6663,321.0377 747.0563,368.1977 " fill="none" id="React Application-to-Comment Endpoint" style="stroke:#181818;stroke-width:1.0;"/><polygon fill="#181818" points="747.36,374.19,750.8994,364.9991,747.1069,369.1964,742.9096,365.404,747.36,374.19" style="stroke:#181818;stroke-width:1.0;"/><text fill="#000000" font-family="sans-serif" font-size="13" lengthAdjust="spacing" textLength="150" x="735" y="258.0069">Fetch/Create Comment</text></g><!--link Post Endpoint to Content Database--><g id="link_Post Endpoint_Content Database"><path d="M557,421.17 C557,444.6 557,475.51 557,501.63 " fill="none" id="Post Endpoint-to-Content Database" style="stroke:#181818;stroke-width:1.0;"/><polygon fill="#181818" points="557,507.63,561,498.63,557,502.63,553,498.63,557,507.63" style="stroke:#181818;stroke-width:1.0;"/><text fill="#000000" font-family="sans-serif" font-size="13" lengthAdjust="spacing" textLength="111" x="558" y="474.1069">CRUD Operations</text></g><!--link AppUser Endpoint to Content Database--><g id="link_AppUser Endpoint_Content Database"><path d="M385.44,421.1 C397.4,438.32 415.68,461.83 436,478.04 C450.13,489.3 461.3786,496.4975 477.6486,504.8975 " fill="none" id="AppUser Endpoint-to-Content Database" style="stroke:#181818;stroke-width:1.0;"/><polygon fill="#181818" points="482.98,507.65,476.8179,499.967,478.5372,505.3562,473.1479,507.0755,482.98,507.65" style="stroke:#181818;stroke-width:1.0;"/><text fill="#000000" font-family="sans-serif" font-size="13" lengthAdjust="spacing" textLength="111" x="437" y="474.1069">CRUD Operations</text></g><!--link Comment Endpoint to Content Database--><g id="link_Comment Endpoint_Content Database"><path d="M731.53,421.35 C718.23,438.48 698.28,461.75 677,478.04 C662.46,489.16 650.8938,496.3821 634.4338,504.8621 " fill="none" id="Comment Endpoint-to-Content Database" style="stroke:#181818;stroke-width:1.0;"/><polygon fill="#181818" points="629.1,507.61,638.9326,507.044,633.5448,505.3201,635.2687,499.9323,629.1,507.61" style="stroke:#181818;stroke-width:1.0;"/><text fill="#000000" font-family="sans-serif" font-size="13" lengthAdjust="spacing" textLength="111" x="695" y="474.1069">CRUD Operations</text></g><!--SRC=[ZP11Ry8m38Nl-HKMft90t16g1ALecvZMjN2QUiYALI964gKUqZJjlo_Dog1fAv5JPB_FxzcQ5qTU8epMHab2kH_1DmFxtbBa1S52wmzHS19Avko7CNtHB-tdHlvVNtpI0HAZpcAF1e8dVkI6ECJn-29rqvqiGtCM1UPUUSM9l_CASvZFdx-orqqOEeMrRrb5Bh7Dc3n2a6aZP0bBfQZjbAYA89PxhOIaMokjTvMDsDEArEbK3-vj_NaEPxGfUsu7aqdeRGqpsAXIo6cAfQW83VFwL-JgDeCetQtWHQDnWwj-oD-jvWnoGd3ru66xJSR3ETiti_0QgJXCcn5rTvZj7C_76m7pNHhQls_VnftrxcUxyUvbVm40]--></g></svg>